<?xml version="1.0" encoding="UTF-8"?>
<svg xmlns="http://www.w3.org/2000/svg" xmlns:xlink="http://www.w3.org/1999/xlink" width="32pt" height="32pt" viewBox="0 0 32 32" version="1.1">
<g id="surface1">
<path style=" stroke:none;fill-rule:nonzero;fill:rgb(255%,255%,255%);fill-opacity:1;" d="M 16 6 C 14.285156 6 12.625 6.269531 11.070312 6.804688 C 9.613281 7.304688 8.3125 8.015625 7.207031 8.910156 C 5.136719 10.59375 4 12.757812 4 15 C 4 16.261719 4.351562 17.480469 5.039062 18.628906 C 5.753906 19.8125 6.820312 20.898438 8.132812 21.761719 C 9.082031 22.386719 9.71875 23.386719 9.890625 24.507812 C 9.945312 24.882812 9.980469 25.261719 9.996094 25.636719 C 10.230469 25.441406 10.457031 25.234375 10.679688 25.011719 C 11.433594 24.257812 12.453125 23.839844 13.507812 23.839844 C 13.675781 23.839844 13.84375 23.851562 14.011719 23.871094 C 14.667969 23.957031 15.335938 23.996094 16.003906 23.996094 C 17.71875 23.996094 19.375 23.726562 20.929688 23.195312 C 22.390625 22.691406 23.691406 21.984375 24.792969 21.085938 C 26.863281 19.402344 28.003906 17.242188 28.003906 14.996094 C 28.003906 12.753906 26.863281 10.59375 24.792969 8.910156 C 23.691406 8.015625 22.390625 7.304688 20.929688 6.800781 C 19.375 6.269531 17.71875 5.996094 16.003906 5.996094 Z M 16 2 C 24.835938 2 32 7.820312 32 15 C 32 22.179688 24.835938 28 16 28 C 15.152344 28 14.316406 27.945312 13.507812 27.84375 C 10.070312 31.277344 5.964844 31.894531 2 31.984375 L 2 31.144531 C 4.140625 30.09375 6 28.183594 6 26 C 6 25.695312 5.976562 25.394531 5.933594 25.105469 C 2.3125 22.71875 0 19.078125 0 15 C 0 7.820312 7.164062 2 16 2 Z M 16 2 "/>
</g>
</svg>
